<svg width="340" height="168" viewBox="0 0 340 168" fill="none" xmlns="http://www.w3.org/2000/svg">
<path d="M0 0H307.5C325.173 0 339.5 14.3269 339.5 32V149V167.5C339.5 167.5 331 148.5 310 149H62.5C44.8269 149 30.5 134.673 30.5 117V31.5662C30.5 30.5235 30.4273 29.4626 30.2414 28.4366C25.0887 0 0 0 0 0Z" fill="#B6349A"/>
<path d="M58.9833 30.9971L60.9917 33.0138L65.0167 28.9805" stroke="white" stroke-width="1.25" stroke-linecap="round" stroke-linejoin="round"/>
<path d="M60.9583 23.0406C61.5333 22.549 62.475 22.549 63.0583 23.0406L64.375 24.174C64.625 24.3906 65.0917 24.5656 65.425 24.5656H66.8417C67.725 24.5656 68.45 25.2906 68.45 26.174V27.5906C68.45 27.9156 68.625 28.3906 68.8417 28.6406L69.975 29.9573C70.4667 30.5323 70.4667 31.474 69.975 32.0573L68.8417 33.374C68.625 33.624 68.45 34.0906 68.45 34.424V35.8406C68.45 36.724 67.725 37.449 66.8417 37.449H65.425C65.1 37.449 64.625 37.624 64.375 37.8406L63.0583 38.974C62.4833 39.4656 61.5417 39.4656 60.9583 38.974L59.6417 37.8406C59.3917 37.624 58.925 37.449 58.5917 37.449H57.15C56.2667 37.449 55.5417 36.724 55.5417 35.8406V34.4156C55.5417 34.0906 55.3667 33.624 55.1583 33.374L54.0333 32.049C53.55 31.474 53.55 30.5406 54.0333 29.9656L55.1583 28.6406C55.3667 28.3906 55.5417 27.924 55.5417 27.599V26.1656C55.5417 25.2823 56.2667 24.5573 57.15 24.5573H58.5917C58.9167 24.5573 59.3917 24.3823 59.6417 24.1656L60.9583 23.0406Z" stroke="white" stroke-width="1.25" stroke-linecap="round" stroke-linejoin="round"/>
<path d="M81.1477 37V25.3636H88.6023V27.1307H83.2557V30.2898H88.0909V32.0568H83.2557V37H81.1477ZM90.3068 37V28.2727H92.3011V29.7273H92.392C92.5511 29.2235 92.8239 28.8352 93.2102 28.5625C93.6004 28.286 94.0455 28.1477 94.5455 28.1477C94.6591 28.1477 94.786 28.1534 94.9261 28.1648C95.0701 28.1723 95.1894 28.1856 95.2841 28.2045V30.0966C95.197 30.0663 95.0587 30.0398 94.8693 30.017C94.6837 29.9905 94.5038 29.9773 94.3295 29.9773C93.9545 29.9773 93.6174 30.0587 93.3182 30.2216C93.0227 30.3807 92.7898 30.6023 92.6193 30.8864C92.4489 31.1705 92.3636 31.4981 92.3636 31.8693V37H90.3068ZM100.155 37.1705C99.2798 37.1705 98.5241 36.9886 97.8878 36.625C97.2552 36.2576 96.7685 35.7386 96.4276 35.0682C96.0866 34.3939 95.9162 33.6004 95.9162 32.6875C95.9162 31.7898 96.0866 31.0019 96.4276 30.3239C96.7723 29.642 97.2533 29.1117 97.8707 28.733C98.4882 28.3504 99.2135 28.1591 100.047 28.1591C100.585 28.1591 101.092 28.2462 101.57 28.4205C102.051 28.5909 102.475 28.8561 102.842 29.2159C103.214 29.5758 103.505 30.0341 103.717 30.5909C103.929 31.1439 104.036 31.803 104.036 32.5682V33.1989H96.8821V31.8125H102.064C102.06 31.4186 101.975 31.0682 101.808 30.7614C101.642 30.4508 101.409 30.2064 101.109 30.0284C100.814 29.8504 100.469 29.7614 100.075 29.7614C99.6548 29.7614 99.2855 29.8636 98.9673 30.0682C98.6491 30.2689 98.401 30.5341 98.223 30.8636C98.0488 31.1894 97.9598 31.5473 97.956 31.9375V33.1477C97.956 33.6553 98.0488 34.0909 98.2344 34.4545C98.42 34.8144 98.6795 35.0909 99.0128 35.2841C99.3461 35.4735 99.7363 35.5682 100.183 35.5682C100.482 35.5682 100.753 35.5265 100.996 35.4432C101.238 35.3561 101.448 35.2292 101.626 35.0625C101.804 34.8958 101.939 34.6894 102.03 34.4432L103.95 34.6591C103.829 35.1667 103.598 35.6098 103.257 35.9886C102.92 36.3636 102.488 36.6553 101.962 36.8636C101.435 37.0682 100.833 37.1705 100.155 37.1705ZM112.673 30.5795L110.798 30.7841C110.745 30.5947 110.652 30.4167 110.52 30.25C110.391 30.0833 110.217 29.9489 109.997 29.8466C109.777 29.7443 109.509 29.6932 109.19 29.6932C108.762 29.6932 108.402 29.786 108.111 29.9716C107.823 30.1572 107.681 30.3977 107.685 30.6932C107.681 30.947 107.774 31.1534 107.963 31.3125C108.156 31.4716 108.474 31.6023 108.918 31.7045L110.406 32.0227C111.232 32.2008 111.846 32.483 112.247 32.8693C112.652 33.2557 112.857 33.7614 112.861 34.3864C112.857 34.9356 112.696 35.4205 112.378 35.8409C112.063 36.2576 111.626 36.5833 111.065 36.8182C110.505 37.053 109.861 37.1705 109.134 37.1705C108.065 37.1705 107.205 36.947 106.554 36.5C105.902 36.0492 105.514 35.4223 105.389 34.6193L107.395 34.4261C107.486 34.8201 107.679 35.1174 107.974 35.3182C108.27 35.5189 108.654 35.6193 109.128 35.6193C109.616 35.6193 110.009 35.5189 110.304 35.3182C110.603 35.1174 110.753 34.8693 110.753 34.5739C110.753 34.3239 110.656 34.1174 110.463 33.9545C110.274 33.7917 109.978 33.6667 109.577 33.5795L108.088 33.267C107.251 33.0928 106.632 32.7992 106.23 32.3864C105.829 31.9697 105.63 31.4432 105.634 30.8068C105.63 30.2689 105.776 29.803 106.071 29.4091C106.37 29.0114 106.785 28.7045 107.315 28.4886C107.849 28.2689 108.465 28.1591 109.162 28.1591C110.185 28.1591 110.99 28.3769 111.577 28.8125C112.168 29.2481 112.533 29.8371 112.673 30.5795ZM116.614 31.8864V37H114.557V25.3636H116.568V29.7557H116.67C116.875 29.2633 117.191 28.875 117.619 28.5909C118.051 28.303 118.6 28.1591 119.267 28.1591C119.873 28.1591 120.402 28.286 120.852 28.5398C121.303 28.7936 121.652 29.1648 121.898 29.6534C122.148 30.142 122.273 30.7386 122.273 31.4432V37H120.216V31.7614C120.216 31.1742 120.064 30.7178 119.761 30.392C119.462 30.0625 119.042 29.8977 118.5 29.8977C118.136 29.8977 117.811 29.9773 117.523 30.1364C117.239 30.2917 117.015 30.517 116.852 30.8125C116.693 31.108 116.614 31.4659 116.614 31.8864ZM126.426 31.8864V37H124.369V28.2727H126.335V29.7557H126.438C126.638 29.267 126.958 28.8788 127.398 28.5909C127.841 28.303 128.388 28.1591 129.04 28.1591C129.642 28.1591 130.167 28.2879 130.614 28.5455C131.064 28.803 131.413 29.1761 131.659 29.6648C131.909 30.1534 132.032 30.7462 132.028 31.4432V37H129.972V31.7614C129.972 31.178 129.82 30.7216 129.517 30.392C129.218 30.0625 128.803 29.8977 128.273 29.8977C127.913 29.8977 127.593 29.9773 127.312 30.1364C127.036 30.2917 126.818 30.517 126.659 30.8125C126.504 31.108 126.426 31.4659 126.426 31.8864ZM137.983 37.1705C137.108 37.1705 136.352 36.9886 135.716 36.625C135.083 36.2576 134.597 35.7386 134.256 35.0682C133.915 34.3939 133.744 33.6004 133.744 32.6875C133.744 31.7898 133.915 31.0019 134.256 30.3239C134.6 29.642 135.081 29.1117 135.699 28.733C136.316 28.3504 137.042 28.1591 137.875 28.1591C138.413 28.1591 138.92 28.2462 139.398 28.4205C139.879 28.5909 140.303 28.8561 140.67 29.2159C141.042 29.5758 141.333 30.0341 141.545 30.5909C141.758 31.1439 141.864 31.803 141.864 32.5682V33.1989H134.71V31.8125H139.892C139.888 31.4186 139.803 31.0682 139.636 30.7614C139.47 30.4508 139.237 30.2064 138.938 30.0284C138.642 29.8504 138.297 29.7614 137.903 29.7614C137.483 29.7614 137.114 29.8636 136.795 30.0682C136.477 30.2689 136.229 30.5341 136.051 30.8636C135.877 31.1894 135.788 31.5473 135.784 31.9375V33.1477C135.784 33.6553 135.877 34.0909 136.062 34.4545C136.248 34.8144 136.508 35.0909 136.841 35.2841C137.174 35.4735 137.564 35.5682 138.011 35.5682C138.311 35.5682 138.581 35.5265 138.824 35.4432C139.066 35.3561 139.277 35.2292 139.455 35.0625C139.633 34.8958 139.767 34.6894 139.858 34.4432L141.778 34.6591C141.657 35.1667 141.426 35.6098 141.085 35.9886C140.748 36.3636 140.316 36.6553 139.79 36.8636C139.263 37.0682 138.661 37.1705 137.983 37.1705ZM150.501 30.5795L148.626 30.7841C148.573 30.5947 148.481 30.4167 148.348 30.25C148.219 30.0833 148.045 29.9489 147.825 29.8466C147.606 29.7443 147.337 29.6932 147.018 29.6932C146.59 29.6932 146.231 29.786 145.939 29.9716C145.651 30.1572 145.509 30.3977 145.513 30.6932C145.509 30.947 145.602 31.1534 145.791 31.3125C145.984 31.4716 146.303 31.6023 146.746 31.7045L148.234 32.0227C149.06 32.2008 149.674 32.483 150.075 32.8693C150.481 33.2557 150.685 33.7614 150.689 34.3864C150.685 34.9356 150.524 35.4205 150.206 35.8409C149.892 36.2576 149.454 36.5833 148.893 36.8182C148.333 37.053 147.689 37.1705 146.962 37.1705C145.893 37.1705 145.034 36.947 144.382 36.5C143.731 36.0492 143.342 35.4223 143.217 34.6193L145.223 34.4261C145.314 34.8201 145.507 35.1174 145.803 35.3182C146.098 35.5189 146.482 35.6193 146.956 35.6193C147.445 35.6193 147.837 35.5189 148.132 35.3182C148.431 35.1174 148.581 34.8693 148.581 34.5739C148.581 34.3239 148.484 34.1174 148.291 33.9545C148.102 33.7917 147.806 33.6667 147.405 33.5795L145.916 33.267C145.079 33.0928 144.46 32.7992 144.058 32.3864C143.657 31.9697 143.458 31.4432 143.462 30.8068C143.458 30.2689 143.604 29.803 143.899 29.4091C144.198 29.0114 144.613 28.7045 145.143 28.4886C145.678 28.2689 146.293 28.1591 146.99 28.1591C148.013 28.1591 148.818 28.3769 149.405 28.8125C149.996 29.2481 150.361 29.8371 150.501 30.5795ZM159.283 30.5795L157.408 30.7841C157.355 30.5947 157.262 30.4167 157.129 30.25C157 30.0833 156.826 29.9489 156.607 29.8466C156.387 29.7443 156.118 29.6932 155.8 29.6932C155.372 29.6932 155.012 29.786 154.72 29.9716C154.432 30.1572 154.29 30.3977 154.294 30.6932C154.29 30.947 154.383 31.1534 154.572 31.3125C154.766 31.4716 155.084 31.6023 155.527 31.7045L157.016 32.0227C157.841 32.2008 158.455 32.483 158.857 32.8693C159.262 33.2557 159.466 33.7614 159.47 34.3864C159.466 34.9356 159.305 35.4205 158.987 35.8409C158.673 36.2576 158.235 36.5833 157.675 36.8182C157.114 37.053 156.47 37.1705 155.743 37.1705C154.675 37.1705 153.815 36.947 153.163 36.5C152.512 36.0492 152.124 35.4223 151.999 34.6193L154.004 34.4261C154.095 34.8201 154.288 35.1174 154.584 35.3182C154.879 35.5189 155.264 35.6193 155.737 35.6193C156.226 35.6193 156.618 35.5189 156.913 35.3182C157.213 35.1174 157.362 34.8693 157.362 34.5739C157.362 34.3239 157.266 34.1174 157.072 33.9545C156.883 33.7917 156.588 33.6667 156.186 33.5795L154.697 33.267C153.86 33.0928 153.241 32.7992 152.839 32.3864C152.438 31.9697 152.239 31.4432 152.243 30.8068C152.239 30.2689 152.385 29.803 152.68 29.4091C152.98 29.0114 153.394 28.7045 153.925 28.4886C154.459 28.2689 155.074 28.1591 155.771 28.1591C156.794 28.1591 157.599 28.3769 158.186 28.8125C158.777 29.2481 159.143 29.8371 159.283 30.5795ZM173.021 29.0795C172.927 28.7727 172.796 28.4981 172.629 28.2557C172.466 28.0095 172.269 27.7992 172.038 27.625C171.811 27.4508 171.55 27.3201 171.254 27.233C170.959 27.142 170.637 27.0966 170.288 27.0966C169.663 27.0966 169.107 27.2538 168.618 27.5682C168.129 27.8826 167.745 28.3447 167.464 28.9545C167.188 29.5606 167.05 30.2992 167.05 31.1705C167.05 32.0492 167.188 32.7936 167.464 33.4034C167.741 34.0133 168.125 34.4773 168.618 34.7955C169.11 35.1098 169.682 35.267 170.334 35.267C170.925 35.267 171.436 35.1534 171.868 34.9261C172.304 34.6989 172.639 34.3769 172.874 33.9602C173.108 33.5398 173.226 33.0473 173.226 32.483L173.703 32.5568H170.544V30.9091H175.266V32.3068C175.266 33.303 175.054 34.1648 174.629 34.892C174.205 35.6193 173.622 36.1799 172.879 36.5739C172.137 36.964 171.285 37.1591 170.322 37.1591C169.25 37.1591 168.309 36.9186 167.499 36.4375C166.692 35.9527 166.061 35.2652 165.607 34.375C165.156 33.4811 164.93 32.4205 164.93 31.1932C164.93 30.2538 165.063 29.4148 165.328 28.6761C165.597 27.9375 165.972 27.3106 166.453 26.7955C166.934 26.2765 167.499 25.8826 168.146 25.6136C168.794 25.3409 169.499 25.2045 170.26 25.2045C170.904 25.2045 171.504 25.2992 172.061 25.4886C172.618 25.6742 173.112 25.9394 173.544 26.2841C173.98 26.6288 174.338 27.0379 174.618 27.5114C174.898 27.9848 175.082 28.5076 175.169 29.0795H173.021ZM182.776 33.3295V28.2727H184.832V37H182.838V35.4489H182.747C182.55 35.9375 182.226 36.3371 181.776 36.6477C181.329 36.9583 180.777 37.1136 180.122 37.1136C179.55 37.1136 179.045 36.9867 178.605 36.733C178.17 36.4754 177.829 36.1023 177.582 35.6136C177.336 35.1212 177.213 34.5265 177.213 33.8295V28.2727H179.27V33.5114C179.27 34.0644 179.421 34.5038 179.724 34.8295C180.027 35.1553 180.425 35.3182 180.918 35.3182C181.221 35.3182 181.514 35.2443 181.798 35.0966C182.082 34.9489 182.315 34.7292 182.497 34.4375C182.683 34.142 182.776 33.7727 182.776 33.3295ZM189.459 37.1761C188.906 37.1761 188.408 37.0777 187.964 36.8807C187.525 36.6799 187.177 36.3845 186.919 35.9943C186.665 35.6042 186.538 35.1231 186.538 34.5511C186.538 34.0587 186.629 33.6515 186.811 33.3295C186.993 33.0076 187.241 32.75 187.555 32.5568C187.87 32.3636 188.224 32.2178 188.618 32.1193C189.016 32.017 189.427 31.9432 189.851 31.8977C190.362 31.8447 190.777 31.7973 191.095 31.7557C191.413 31.7102 191.644 31.642 191.788 31.5511C191.936 31.4564 192.01 31.3106 192.01 31.1136V31.0795C192.01 30.6515 191.883 30.3201 191.629 30.0852C191.375 29.8504 191.01 29.733 190.533 29.733C190.029 29.733 189.629 29.8428 189.334 30.0625C189.042 30.2822 188.845 30.5417 188.743 30.8409L186.822 30.5682C186.974 30.0379 187.224 29.5947 187.572 29.2386C187.921 28.8788 188.347 28.6098 188.851 28.4318C189.355 28.25 189.911 28.1591 190.521 28.1591C190.942 28.1591 191.36 28.2083 191.777 28.3068C192.194 28.4053 192.574 28.5682 192.919 28.7955C193.264 29.0189 193.54 29.3239 193.749 29.7102C193.961 30.0966 194.067 30.5795 194.067 31.1591V37H192.089V35.8011H192.021C191.896 36.0436 191.72 36.2708 191.493 36.483C191.269 36.6913 190.987 36.8598 190.646 36.9886C190.309 37.1136 189.913 37.1761 189.459 37.1761ZM189.993 35.6648C190.406 35.6648 190.764 35.5833 191.067 35.4205C191.37 35.2538 191.603 35.0341 191.766 34.7614C191.932 34.4886 192.016 34.1913 192.016 33.8693V32.8409C191.951 32.8939 191.841 32.9432 191.686 32.9886C191.535 33.0341 191.364 33.0739 191.175 33.108C190.985 33.142 190.798 33.1723 190.612 33.1989C190.427 33.2254 190.266 33.2481 190.129 33.267C189.822 33.3087 189.548 33.3769 189.305 33.4716C189.063 33.5663 188.872 33.6989 188.732 33.8693C188.591 34.036 188.521 34.2519 188.521 34.517C188.521 34.8958 188.66 35.1818 188.936 35.375C189.213 35.5682 189.565 35.6648 189.993 35.6648ZM196.135 37V28.2727H198.129V29.7273H198.22C198.379 29.2235 198.652 28.8352 199.038 28.5625C199.429 28.286 199.874 28.1477 200.374 28.1477C200.487 28.1477 200.614 28.1534 200.754 28.1648C200.898 28.1723 201.018 28.1856 201.112 28.2045V30.0966C201.025 30.0663 200.887 30.0398 200.697 30.017C200.512 29.9905 200.332 29.9773 200.158 29.9773C199.783 29.9773 199.446 30.0587 199.146 30.2216C198.851 30.3807 198.618 30.6023 198.447 30.8864C198.277 31.1705 198.192 31.4981 198.192 31.8693V37H196.135ZM204.834 37.1761C204.281 37.1761 203.783 37.0777 203.339 36.8807C202.9 36.6799 202.552 36.3845 202.294 35.9943C202.04 35.6042 201.913 35.1231 201.913 34.5511C201.913 34.0587 202.004 33.6515 202.186 33.3295C202.368 33.0076 202.616 32.75 202.93 32.5568C203.245 32.3636 203.599 32.2178 203.993 32.1193C204.391 32.017 204.802 31.9432 205.226 31.8977C205.737 31.8447 206.152 31.7973 206.47 31.7557C206.788 31.7102 207.019 31.642 207.163 31.5511C207.311 31.4564 207.385 31.3106 207.385 31.1136V31.0795C207.385 30.6515 207.258 30.3201 207.004 30.0852C206.75 29.8504 206.385 29.733 205.908 29.733C205.404 29.733 205.004 29.8428 204.709 30.0625C204.417 30.2822 204.22 30.5417 204.118 30.8409L202.197 30.5682C202.349 30.0379 202.599 29.5947 202.947 29.2386C203.296 28.8788 203.722 28.6098 204.226 28.4318C204.73 28.25 205.286 28.1591 205.896 28.1591C206.317 28.1591 206.735 28.2083 207.152 28.3068C207.569 28.4053 207.949 28.5682 208.294 28.7955C208.639 29.0189 208.915 29.3239 209.124 29.7102C209.336 30.0966 209.442 30.5795 209.442 31.1591V37H207.464V35.8011H207.396C207.271 36.0436 207.095 36.2708 206.868 36.483C206.644 36.6913 206.362 36.8598 206.021 36.9886C205.684 37.1136 205.288 37.1761 204.834 37.1761ZM205.368 35.6648C205.781 35.6648 206.139 35.5833 206.442 35.4205C206.745 35.2538 206.978 35.0341 207.141 34.7614C207.307 34.4886 207.391 34.1913 207.391 33.8693V32.8409C207.326 32.8939 207.216 32.9432 207.061 32.9886C206.91 33.0341 206.739 33.0739 206.55 33.108C206.36 33.142 206.173 33.1723 205.987 33.1989C205.802 33.2254 205.641 33.2481 205.504 33.267C205.197 33.3087 204.923 33.3769 204.68 33.4716C204.438 33.5663 204.247 33.6989 204.107 33.8693C203.966 34.036 203.896 34.2519 203.896 34.517C203.896 34.8958 204.035 35.1818 204.311 35.375C204.588 35.5682 204.94 35.6648 205.368 35.6648ZM213.567 31.8864V37H211.51V28.2727H213.476V29.7557H213.578C213.779 29.267 214.099 28.8788 214.538 28.5909C214.982 28.303 215.529 28.1591 216.18 28.1591C216.783 28.1591 217.307 28.2879 217.754 28.5455C218.205 28.803 218.554 29.1761 218.8 29.6648C219.05 30.1534 219.173 30.7462 219.169 31.4432V37H217.112V31.7614C217.112 31.178 216.961 30.7216 216.658 30.392C216.358 30.0625 215.944 29.8977 215.413 29.8977C215.054 29.8977 214.733 29.9773 214.453 30.1364C214.177 30.2917 213.959 30.517 213.8 30.8125C213.644 31.108 213.567 31.4659 213.567 31.8864ZM225.618 28.2727V29.8636H220.601V28.2727H225.618ZM221.839 26.1818H223.896V34.375C223.896 34.6515 223.938 34.8636 224.021 35.0114C224.108 35.1553 224.222 35.2538 224.362 35.3068C224.502 35.3598 224.658 35.3864 224.828 35.3864C224.957 35.3864 225.074 35.3769 225.18 35.358C225.29 35.339 225.374 35.322 225.43 35.3068L225.777 36.9148C225.667 36.9527 225.51 36.9943 225.305 37.0398C225.105 37.0852 224.858 37.1117 224.567 37.1193C224.052 37.1345 223.588 37.0568 223.175 36.8864C222.762 36.7121 222.434 36.4432 222.192 36.0795C221.953 35.7159 221.836 35.2614 221.839 34.7159V26.1818ZM231.108 37.1705C230.233 37.1705 229.477 36.9886 228.841 36.625C228.208 36.2576 227.722 35.7386 227.381 35.0682C227.04 34.3939 226.869 33.6004 226.869 32.6875C226.869 31.7898 227.04 31.0019 227.381 30.3239C227.725 29.642 228.206 29.1117 228.824 28.733C229.441 28.3504 230.167 28.1591 231 28.1591C231.538 28.1591 232.045 28.2462 232.523 28.4205C233.004 28.5909 233.428 28.8561 233.795 29.2159C234.167 29.5758 234.458 30.0341 234.67 30.5909C234.883 31.1439 234.989 31.803 234.989 32.5682V33.1989H227.835V31.8125H233.017C233.013 31.4186 232.928 31.0682 232.761 30.7614C232.595 30.4508 232.362 30.2064 232.062 30.0284C231.767 29.8504 231.422 29.7614 231.028 29.7614C230.608 29.7614 230.239 29.8636 229.92 30.0682C229.602 30.2689 229.354 30.5341 229.176 30.8636C229.002 31.1894 228.913 31.5473 228.909 31.9375V33.1477C228.909 33.6553 229.002 34.0909 229.188 34.4545C229.373 34.8144 229.633 35.0909 229.966 35.2841C230.299 35.4735 230.689 35.5682 231.136 35.5682C231.436 35.5682 231.706 35.5265 231.949 35.4432C232.191 35.3561 232.402 35.2292 232.58 35.0625C232.758 34.8958 232.892 34.6894 232.983 34.4432L234.903 34.6591C234.782 35.1667 234.551 35.6098 234.21 35.9886C233.873 36.3636 233.441 36.6553 232.915 36.8636C232.388 37.0682 231.786 37.1705 231.108 37.1705ZM240.592 37.1705C239.717 37.1705 238.962 36.9886 238.325 36.625C237.693 36.2576 237.206 35.7386 236.865 35.0682C236.524 34.3939 236.354 33.6004 236.354 32.6875C236.354 31.7898 236.524 31.0019 236.865 30.3239C237.21 29.642 237.691 29.1117 238.308 28.733C238.926 28.3504 239.651 28.1591 240.484 28.1591C241.022 28.1591 241.53 28.2462 242.007 28.4205C242.488 28.5909 242.912 28.8561 243.28 29.2159C243.651 29.5758 243.943 30.0341 244.155 30.5909C244.367 31.1439 244.473 31.803 244.473 32.5682V33.1989H237.32V31.8125H242.501C242.498 31.4186 242.412 31.0682 242.246 30.7614C242.079 30.4508 241.846 30.2064 241.547 30.0284C241.251 29.8504 240.907 29.7614 240.513 29.7614C240.092 29.7614 239.723 29.8636 239.405 30.0682C239.087 30.2689 238.839 30.5341 238.661 30.8636C238.486 31.1894 238.397 31.5473 238.393 31.9375V33.1477C238.393 33.6553 238.486 34.0909 238.672 34.4545C238.857 34.8144 239.117 35.0909 239.45 35.2841C239.784 35.4735 240.174 35.5682 240.621 35.5682C240.92 35.5682 241.191 35.5265 241.433 35.4432C241.676 35.3561 241.886 35.2292 242.064 35.0625C242.242 34.8958 242.376 34.6894 242.467 34.4432L244.388 34.6591C244.267 35.1667 244.036 35.6098 243.695 35.9886C243.357 36.3636 242.926 36.6553 242.399 36.8636C241.873 37.0682 241.27 37.1705 240.592 37.1705Z" fill="#EEF5EE"/>
<path d="M58.294 74L52.5469 53.6364H56.5142L60.1832 68.6009H60.3722L64.2898 53.6364H67.8991L71.8267 68.6108H72.0057L75.6747 53.6364H79.642L73.8949 74H70.2557L66.179 59.7116H66.0199L61.9332 74H58.294ZM87.5436 74.2983C86.0124 74.2983 84.6899 73.9801 83.5763 73.3438C82.4693 72.7008 81.6175 71.7926 81.0209 70.6193C80.4243 69.4394 80.126 68.0507 80.126 66.4531C80.126 64.8821 80.4243 63.5033 81.0209 62.3168C81.6241 61.1236 82.466 60.1955 83.5464 59.5327C84.6269 58.8632 85.8964 58.5284 87.3547 58.5284C88.296 58.5284 89.1842 58.6809 90.0195 58.9858C90.8613 59.2841 91.6037 59.7481 92.2467 60.3778C92.8964 61.0076 93.4068 61.8097 93.778 62.7841C94.1492 63.7519 94.3348 64.9053 94.3348 66.2443V67.348H81.8163V64.9219H90.8845C90.8779 64.2325 90.7287 63.6193 90.4371 63.0824C90.1454 62.5388 89.7377 62.1113 89.2141 61.7997C88.697 61.4882 88.0938 61.3324 87.4044 61.3324C86.6686 61.3324 86.0223 61.5114 85.4655 61.8693C84.9087 62.2206 84.4745 62.6847 84.1629 63.2614C83.858 63.8314 83.7022 64.4579 83.6956 65.1406V67.2585C83.6956 68.1468 83.858 68.9091 84.1828 69.5455C84.5076 70.1752 84.9617 70.6591 85.545 70.9972C86.1284 71.3286 86.8111 71.4943 87.5933 71.4943C88.117 71.4943 88.591 71.4214 89.0152 71.2756C89.4394 71.1231 89.8073 70.901 90.1189 70.6094C90.4304 70.3177 90.6658 69.9564 90.8249 69.5256L94.1857 69.9034C93.9735 70.7917 93.5692 71.5672 92.9726 72.2301C92.3826 72.8864 91.6269 73.3968 90.7055 73.7614C89.7841 74.1193 88.7302 74.2983 87.5436 74.2983ZM104.441 74.2983C102.91 74.2983 101.588 73.9801 100.474 73.3438C99.3669 72.7008 98.5151 71.7926 97.9185 70.6193C97.3219 69.4394 97.0236 68.0507 97.0236 66.4531C97.0236 64.8821 97.3219 63.5033 97.9185 62.3168C98.5218 61.1236 99.3636 60.1955 100.444 59.5327C101.525 58.8632 102.794 58.5284 104.252 58.5284C105.194 58.5284 106.082 58.6809 106.917 58.9858C107.759 59.2841 108.501 59.7481 109.144 60.3778C109.794 61.0076 110.304 61.8097 110.676 62.7841C111.047 63.7519 111.232 64.9053 111.232 66.2443V67.348H98.714V64.9219H107.782C107.776 64.2325 107.626 63.6193 107.335 63.0824C107.043 62.5388 106.635 62.1113 106.112 61.7997C105.595 61.4882 104.991 61.3324 104.302 61.3324C103.566 61.3324 102.92 61.5114 102.363 61.8693C101.806 62.2206 101.372 62.6847 101.061 63.2614C100.756 63.8314 100.6 64.4579 100.593 65.1406V67.2585C100.593 68.1468 100.756 68.9091 101.08 69.5455C101.405 70.1752 101.859 70.6591 102.443 70.9972C103.026 71.3286 103.709 71.4943 104.491 71.4943C105.015 71.4943 105.489 71.4214 105.913 71.2756C106.337 71.1231 106.705 70.901 107.017 70.6094C107.328 70.3177 107.563 69.9564 107.723 69.5256L111.083 69.9034C110.871 70.7917 110.467 71.5672 109.87 72.2301C109.28 72.8864 108.525 73.3968 107.603 73.7614C106.682 74.1193 105.628 74.2983 104.441 74.2983ZM117.859 69.2074L117.849 64.8622H118.426L123.914 58.7273H128.12L121.369 66.2443H120.623L117.859 69.2074ZM114.578 74V53.6364H118.177V74H114.578ZM124.163 74L119.191 67.0497L121.617 64.5142L128.468 74H124.163ZM134.418 53.6364V74H130.819V53.6364H134.418ZM140.657 79.7273C140.166 79.7273 139.712 79.6875 139.295 79.608C138.884 79.535 138.556 79.4489 138.31 79.3494L139.146 76.5455C139.669 76.6979 140.137 76.7708 140.548 76.7642C140.959 76.7576 141.32 76.6283 141.631 76.3764C141.95 76.1312 142.218 75.7202 142.437 75.1435L142.745 74.3182L137.207 58.7273H141.025L144.545 70.2614H144.704L148.234 58.7273H152.062L145.947 75.8494C145.662 76.6581 145.284 77.3509 144.813 77.9276C144.343 78.5109 143.766 78.955 143.083 79.2599C142.407 79.5715 141.598 79.7273 140.657 79.7273ZM174.169 62.7642L170.888 63.1222C170.795 62.7907 170.632 62.4792 170.4 62.1875C170.175 61.8958 169.87 61.6605 169.486 61.4815C169.101 61.3026 168.631 61.2131 168.074 61.2131C167.325 61.2131 166.695 61.3755 166.185 61.7003C165.681 62.0251 165.432 62.446 165.439 62.9631C165.432 63.4072 165.595 63.7685 165.926 64.0469C166.264 64.3253 166.821 64.554 167.596 64.733L170.202 65.2898C171.647 65.6013 172.721 66.0952 173.423 66.7713C174.132 67.4474 174.49 68.3324 174.497 69.4261C174.49 70.3873 174.209 71.2358 173.652 71.9716C173.102 72.7008 172.336 73.2708 171.355 73.6818C170.374 74.0928 169.247 74.2983 167.974 74.2983C166.105 74.2983 164.6 73.9072 163.46 73.125C162.32 72.3362 161.64 71.2391 161.422 69.8338L164.932 69.4957C165.091 70.1851 165.429 70.7055 165.946 71.0568C166.463 71.4081 167.136 71.5838 167.964 71.5838C168.819 71.5838 169.506 71.4081 170.023 71.0568C170.546 70.7055 170.808 70.2713 170.808 69.7543C170.808 69.3168 170.639 68.9555 170.301 68.6705C169.97 68.3854 169.453 68.1667 168.75 68.0142L166.145 67.4673C164.68 67.1624 163.596 66.6487 162.893 65.9261C162.191 65.197 161.843 64.2756 161.849 63.1619C161.843 62.2206 162.098 61.4053 162.615 60.7159C163.139 60.0199 163.864 59.483 164.792 59.1051C165.727 58.7206 166.804 58.5284 168.024 58.5284C169.814 58.5284 171.222 58.9096 172.25 59.6719C173.284 60.4342 173.924 61.465 174.169 62.7642ZM184.427 74.2983C182.936 74.2983 181.643 73.9702 180.549 73.3139C179.455 72.6577 178.607 71.7396 178.004 70.5597C177.407 69.3797 177.109 68.0009 177.109 66.4233C177.109 64.8456 177.407 63.4635 178.004 62.277C178.607 61.0904 179.455 60.169 180.549 59.5128C181.643 58.8565 182.936 58.5284 184.427 58.5284C185.918 58.5284 187.211 58.8565 188.305 59.5128C189.399 60.169 190.244 61.0904 190.84 62.277C191.444 63.4635 191.745 64.8456 191.745 66.4233C191.745 68.0009 191.444 69.3797 190.84 70.5597C190.244 71.7396 189.399 72.6577 188.305 73.3139C187.211 73.9702 185.918 74.2983 184.427 74.2983ZM184.447 71.4148C185.256 71.4148 185.932 71.1927 186.475 70.7486C187.019 70.2978 187.423 69.6946 187.688 68.9389C187.96 68.1832 188.096 67.3414 188.096 66.4134C188.096 65.4787 187.96 64.6335 187.688 63.8778C187.423 63.1155 187.019 62.509 186.475 62.0582C185.932 61.6075 185.256 61.3821 184.447 61.3821C183.618 61.3821 182.929 61.6075 182.379 62.0582C181.835 62.509 181.427 63.1155 181.156 63.8778C180.891 64.6335 180.758 65.4787 180.758 66.4134C180.758 67.3414 180.891 68.1832 181.156 68.9389C181.427 69.6946 181.835 70.2978 182.379 70.7486C182.929 71.1927 183.618 71.4148 184.447 71.4148ZM198.7 53.6364V74H195.1V53.6364H198.7ZM208.369 74.2685C207.169 74.2685 206.095 73.9602 205.147 73.3438C204.199 72.7273 203.45 71.8324 202.9 70.6591C202.35 69.4858 202.075 68.0606 202.075 66.3835C202.075 64.6866 202.353 63.2547 202.91 62.0881C203.473 60.9148 204.232 60.0298 205.187 59.4332C206.141 58.83 207.205 58.5284 208.379 58.5284C209.273 58.5284 210.009 58.6809 210.586 58.9858C211.163 59.2841 211.62 59.6454 211.958 60.0696C212.296 60.4872 212.558 60.8816 212.744 61.2528H212.893V53.6364H216.502V74H212.962V71.5938H212.744C212.558 71.965 212.29 72.3594 211.938 72.777C211.587 73.188 211.123 73.5393 210.546 73.831C209.969 74.1226 209.244 74.2685 208.369 74.2685ZM209.373 71.3153C210.135 71.3153 210.785 71.1098 211.322 70.6989C211.859 70.2812 212.266 69.7012 212.545 68.9588C212.823 68.2164 212.962 67.3513 212.962 66.3636C212.962 65.3759 212.823 64.5175 212.545 63.7884C212.273 63.0592 211.869 62.4924 211.332 62.0881C210.801 61.6837 210.148 61.4815 209.373 61.4815C208.571 61.4815 207.901 61.6903 207.364 62.108C206.827 62.5256 206.423 63.1023 206.151 63.8381C205.879 64.5739 205.744 65.4157 205.744 66.3636C205.744 67.3182 205.879 68.17 206.151 68.919C206.43 69.6615 206.837 70.2481 207.374 70.679C207.918 71.1032 208.584 71.3153 209.373 71.3153ZM236.126 53.6364V74H232.437V57.2259H232.318L227.555 60.2685V56.8878L232.616 53.6364H236.126ZM244.917 69.2074L244.907 64.8622H245.484L250.973 58.7273H255.179L248.427 66.2443H247.682L244.917 69.2074ZM241.636 74V53.6364H245.236V74H241.636ZM251.221 74L246.25 67.0497L248.676 64.5142L255.527 74H251.221ZM263.118 72.7969V59.0355H266.24V72.7969H263.118ZM257.798 67.4773V64.3551H271.559V67.4773H257.798Z" fill="white"/>
<rect x="52.5" y="96.5" width="107" height="31" rx="15.5" fill="#FEF5FD"/>
<rect x="52.5" y="96.5" width="107" height="31" rx="15.5" stroke="white"/>
<path d="M66.1847 107.273L68.456 114.142H68.5455L70.8125 107.273H72.5511L69.4744 116H67.5227L64.4503 107.273H66.1847ZM73.6325 116V109.455H75.1751V116H73.6325ZM74.408 108.526C74.1637 108.526 73.9535 108.445 73.7773 108.283C73.6012 108.118 73.5131 107.92 73.5131 107.69C73.5131 107.457 73.6012 107.26 73.7773 107.098C73.9535 106.933 74.1637 106.851 74.408 106.851C74.6552 106.851 74.8654 106.933 75.0387 107.098C75.2148 107.26 75.3029 107.457 75.3029 107.69C75.3029 107.92 75.2148 108.118 75.0387 108.283C74.8654 108.445 74.6552 108.526 74.408 108.526ZM79.6591 116.128C79.0028 116.128 78.4361 115.991 77.9588 115.719C77.4844 115.443 77.1193 115.054 76.8636 114.551C76.608 114.045 76.4801 113.45 76.4801 112.766C76.4801 112.092 76.608 111.501 76.8636 110.993C77.1222 110.482 77.483 110.084 77.946 109.8C78.4091 109.513 78.9531 109.369 79.5781 109.369C79.9815 109.369 80.3622 109.435 80.7202 109.565C81.081 109.693 81.3991 109.892 81.6747 110.162C81.9531 110.432 82.1719 110.776 82.331 111.193C82.4901 111.608 82.5696 112.102 82.5696 112.676V113.149H77.2045V112.109H81.0909C81.0881 111.814 81.0241 111.551 80.8991 111.321C80.7741 111.088 80.5994 110.905 80.375 110.771C80.1534 110.638 79.8949 110.571 79.5994 110.571C79.2841 110.571 79.0071 110.648 78.7685 110.801C78.5298 110.952 78.3438 111.151 78.2102 111.398C78.0795 111.642 78.0128 111.911 78.0099 112.203V113.111C78.0099 113.491 78.0795 113.818 78.2188 114.091C78.358 114.361 78.5526 114.568 78.8026 114.713C79.0526 114.855 79.3452 114.926 79.6804 114.926C79.9048 114.926 80.108 114.895 80.2898 114.832C80.4716 114.767 80.6293 114.672 80.7628 114.547C80.8963 114.422 80.9972 114.267 81.0653 114.082L82.5057 114.244C82.4148 114.625 82.2415 114.957 81.9858 115.241C81.733 115.523 81.4091 115.741 81.0142 115.898C80.6193 116.051 80.1676 116.128 79.6591 116.128ZM85.1903 116L83.3409 109.455H84.9134L86.0639 114.057H86.1236L87.2997 109.455H88.8551L90.0312 114.031H90.0952L91.2287 109.455H92.8054L90.9517 116H89.3452L88.1179 111.577H88.0284L86.8011 116H85.1903ZM96.9272 107.273H98.8619L101.453 113.597H101.555L104.146 107.273H106.081V116H104.564V110.004H104.483L102.071 115.974H100.937L98.5252 109.991H98.4442V116H96.9272V107.273ZM110.589 116.128C109.95 116.128 109.396 115.987 108.927 115.706C108.458 115.425 108.095 115.031 107.836 114.526C107.581 114.02 107.453 113.429 107.453 112.753C107.453 112.077 107.581 111.484 107.836 110.976C108.095 110.467 108.458 110.072 108.927 109.791C109.396 109.51 109.95 109.369 110.589 109.369C111.228 109.369 111.782 109.51 112.251 109.791C112.72 110.072 113.082 110.467 113.338 110.976C113.596 111.484 113.725 112.077 113.725 112.753C113.725 113.429 113.596 114.02 113.338 114.526C113.082 115.031 112.72 115.425 112.251 115.706C111.782 115.987 111.228 116.128 110.589 116.128ZM110.598 114.892C110.944 114.892 111.234 114.797 111.467 114.607C111.7 114.413 111.873 114.155 111.987 113.831C112.103 113.507 112.162 113.146 112.162 112.749C112.162 112.348 112.103 111.986 111.987 111.662C111.873 111.335 111.7 111.075 111.467 110.882C111.234 110.689 110.944 110.592 110.598 110.592C110.243 110.592 109.947 110.689 109.711 110.882C109.478 111.075 109.304 111.335 109.187 111.662C109.074 111.986 109.017 112.348 109.017 112.749C109.017 113.146 109.074 113.507 109.187 113.831C109.304 114.155 109.478 114.413 109.711 114.607C109.947 114.797 110.243 114.892 110.598 114.892ZM115.035 116V109.455H116.531V110.545H116.599C116.718 110.168 116.923 109.876 117.212 109.672C117.505 109.464 117.839 109.361 118.214 109.361C118.299 109.361 118.394 109.365 118.499 109.374C118.607 109.379 118.697 109.389 118.768 109.403V110.822C118.702 110.8 118.599 110.78 118.457 110.763C118.317 110.743 118.183 110.733 118.052 110.733C117.771 110.733 117.518 110.794 117.293 110.916C117.072 111.036 116.897 111.202 116.769 111.415C116.641 111.628 116.577 111.874 116.577 112.152V116H115.035ZM122.421 116.128C121.765 116.128 121.198 115.991 120.721 115.719C120.246 115.443 119.881 115.054 119.625 114.551C119.37 114.045 119.242 113.45 119.242 112.766C119.242 112.092 119.37 111.501 119.625 110.993C119.884 110.482 120.245 110.084 120.708 109.8C121.171 109.513 121.715 109.369 122.34 109.369C122.743 109.369 123.124 109.435 123.482 109.565C123.843 109.693 124.161 109.892 124.436 110.162C124.715 110.432 124.934 110.776 125.093 111.193C125.252 111.608 125.331 112.102 125.331 112.676V113.149H119.966V112.109H123.853C123.85 111.814 123.786 111.551 123.661 111.321C123.536 111.088 123.361 110.905 123.137 110.771C122.915 110.638 122.657 110.571 122.361 110.571C122.046 110.571 121.769 110.648 121.53 110.801C121.292 110.952 121.105 111.151 120.972 111.398C120.841 111.642 120.775 111.911 120.772 112.203V113.111C120.772 113.491 120.841 113.818 120.98 114.091C121.12 114.361 121.314 114.568 121.564 114.713C121.814 114.855 122.107 114.926 122.442 114.926C122.667 114.926 122.87 114.895 123.051 114.832C123.233 114.767 123.391 114.672 123.525 114.547C123.658 114.422 123.759 114.267 123.827 114.082L125.267 114.244C125.176 114.625 125.003 114.957 124.748 115.241C124.495 115.523 124.171 115.741 123.776 115.898C123.381 116.051 122.929 116.128 122.421 116.128Z" fill="#0D0C0D"/>
<path d="M139.878 107.674C139.658 107.455 139.657 107.099 139.877 106.879C140.076 106.679 140.388 106.66 140.609 106.823L140.672 106.877L145.21 111.395C145.41 111.595 145.429 111.909 145.264 112.129L145.21 112.192L140.672 116.711C140.452 116.93 140.096 116.93 139.877 116.709C139.677 116.509 139.66 116.197 139.824 115.977L139.878 115.914L144.015 111.794L139.878 107.674Z" fill="#0D0C0D"/>
<path d="M133 111.797C133 111.512 133.212 111.277 133.486 111.24L133.562 111.234H144.812C145.123 111.234 145.375 111.486 145.375 111.797C145.375 112.082 145.163 112.317 144.889 112.354L144.812 112.359H133.562C133.252 112.359 133 112.108 133 111.797Z" fill="#0D0C0D"/>
</svg>
