<svg width="24" height="24" viewBox="0 0 24 24" fill="none" xmlns="http://www.w3.org/2000/svg">
<g id="Icon-Linkedin">
<path id="Vector" d="M11.3931 9.13237C12.2552 8.25143 13.3778 7.67511 14.6837 7.67511C16.0551 7.67511 17.3703 8.2199 18.3401 9.18964C19.3098 10.1594 19.8546 11.4746 19.8546 12.846V19.8973H17.9743V12.846C17.9743 11.9733 17.6276 11.1363 17.0105 10.5192C16.3934 9.90213 15.5564 9.55545 14.6837 9.55545C13.8109 9.55545 12.974 9.90213 12.3569 10.5192C11.7398 11.1363 11.3931 11.9733 11.3931 12.846V19.8973H9.51272V8.14519H11.3931V9.13237ZM4.81187 6.26485C4.43784 6.26485 4.07914 6.11627 3.81467 5.85179C3.55019 5.58732 3.40161 5.22862 3.40161 4.85459C3.40161 4.48057 3.55019 4.12186 3.81467 3.85739C4.07914 3.59292 4.43784 3.44434 4.81187 3.44434C5.18589 3.44434 5.5446 3.59292 5.80907 3.85739C6.07354 4.12186 6.22212 4.48057 6.22212 4.85459C6.22212 5.22862 6.07354 5.58732 5.80907 5.85179C5.5446 6.11627 5.18589 6.26485 4.81187 6.26485ZM3.8717 8.14519H5.75204V19.8973H3.8717V8.14519Z" fill="black"/>
</g>
</svg>
