<svg width="28" height="28" viewBox="0 0 28 28" fill="none" xmlns="http://www.w3.org/2000/svg">
<g id="yt">
<g id="Group">
<path id="Vector" d="M16.3911 13.8991L12.5216 16.1102V11.688L16.3911 13.8991Z" fill="#F6E2AB" stroke="#F6E2AB" stroke-width="1.99" stroke-linecap="round" stroke-linejoin="round"/>
<path id="Vector_2" d="M3.12463 14.6823V13.118C3.12463 9.9174 3.12463 8.31655 4.12516 7.28728C5.12679 6.2569 6.70332 6.21268 9.85526 6.12313C11.3478 6.08112 12.8734 6.05127 14.1802 6.05127C15.4858 6.05127 17.0115 6.08112 18.5051 6.12313C21.6571 6.21268 23.2336 6.2569 24.2341 7.28728C25.2357 8.31655 25.2357 9.9185 25.2357 13.118V14.6823C25.2357 17.884 25.2357 19.4838 24.2352 20.5141C23.2336 21.5434 21.6582 21.5887 18.5051 21.6772C17.0126 21.7203 15.487 21.7502 14.1802 21.7502C12.7383 21.7458 11.2965 21.7215 9.85526 21.6772C6.70332 21.5887 5.12679 21.5445 4.12516 20.5141C3.12463 19.4838 3.12463 17.8829 3.12463 14.6834V14.6823Z" stroke="#F6E2AB" stroke-width="1.99"/>
</g>
</g>
</svg>
