<svg width="72" height="102" viewBox="0 0 72 102" fill="none" xmlns="http://www.w3.org/2000/svg">
<path id="Vector" d="M36 48.45C32.6374 48.45 29.4126 47.1067 27.0349 44.7156C24.6572 42.3245 23.3214 39.0815 23.3214 35.7C23.3214 32.3185 24.6572 29.0755 27.0349 26.6844C29.4126 24.2933 32.6374 22.95 36 22.95C39.3626 22.95 42.5874 24.2933 44.9651 26.6844C47.3428 29.0755 48.6786 32.3185 48.6786 35.7C48.6786 37.3744 48.3506 39.0323 47.7135 40.5792C47.0763 42.1261 46.1424 43.5317 44.9651 44.7156C43.7878 45.8996 42.3901 46.8387 40.8519 47.4795C39.3136 48.1202 37.665 48.45 36 48.45ZM36 0C26.5848 0 17.5553 3.76124 10.8977 10.4563C4.24017 17.1513 0.5 26.2318 0.5 35.7C0.5 62.475 36 102 36 102C36 102 71.5 62.475 71.5 35.7C71.5 26.2318 67.7598 17.1513 61.1023 10.4563C54.4447 3.76124 45.4152 0 36 0Z" fill="#FDDC58"/>
</svg>
