<svg width="25" height="25" viewBox="0 0 25 25" fill="none" xmlns="http://www.w3.org/2000/svg">
<g id="icons8-apple-logo 1" clip-path="url(#clip0_44_4613)">
<g id="Vector">
<path d="M17.9863 0.92141C16.625 1.01329 15.1681 1.82329 14.2663 2.91641C13.4769 3.87829 12.815 5.29016 13.0663 6.75641C12.8413 6.68704 12.6369 6.67954 12.3913 6.59141C11.7219 6.35329 10.9569 6.09641 10.0063 6.09641C8.11813 6.09641 6.185 7.21954 4.96625 9.09641C3.1925 11.8227 3.54875 16.6208 6.24125 20.7214C6.71563 21.4414 7.26875 22.227 7.95125 22.8514C8.63375 23.4758 9.45875 23.952 10.4263 23.9614C11.2531 23.9708 11.8288 23.6952 12.3463 23.4664C12.8638 23.2377 13.3456 23.0352 14.2513 23.0314C14.2569 23.0314 14.2606 23.0314 14.2663 23.0314C15.1681 23.0239 15.635 23.2227 16.1413 23.4514C16.6475 23.6802 17.2175 23.9689 18.0463 23.9614C19.0325 23.9539 19.8706 23.4139 20.5663 22.7464C21.2619 22.0789 21.8338 21.2595 22.3063 20.5414C22.9831 19.5102 23.255 18.9477 23.7763 17.7964C23.8306 17.6764 23.8325 17.5377 23.78 17.4158C23.7294 17.2939 23.63 17.1983 23.5063 17.1514C21.8 16.5064 20.8269 14.997 20.6863 13.4014C20.5456 11.8058 21.2206 10.1633 22.9213 9.23141C23.0469 9.16391 23.135 9.04578 23.165 8.90704C23.1931 8.76828 23.1594 8.62204 23.0713 8.51141C21.8506 6.99454 20.1331 6.09641 18.4513 6.09641C17.3788 6.09641 16.5913 6.34954 15.9463 6.59141C15.8394 6.63266 15.7606 6.62891 15.6613 6.66641C16.3156 6.32141 16.8931 5.84329 17.3263 5.28641C18.1138 4.27579 18.7213 2.83766 18.4963 1.32641C18.4588 1.07891 18.2356 0.90266 17.9863 0.92141ZM17.4763 2.06141C17.4444 3.03079 17.1125 3.97954 16.5613 4.68641C15.9838 5.42891 15.0125 5.94266 14.0713 6.09641C14.0881 5.16454 14.4556 4.19891 15.0163 3.51641C15.605 2.80391 16.58 2.29016 17.4763 2.06141ZM10.0063 7.05641C10.4263 7.05641 11.4013 7.25704 12.0613 7.49141C12.7213 7.72579 13.4169 8.00141 14.2363 8.00141C15.0369 8.00141 15.6706 7.72391 16.2913 7.49141C16.9119 7.25891 17.5306 7.05641 18.4513 7.05641C19.6531 7.05641 20.9525 7.68079 21.9763 8.76641C20.3375 9.92329 19.5706 11.727 19.7263 13.4764C19.8819 15.2445 20.9469 16.9227 22.6963 17.7964C22.6937 17.8019 22.6912 17.8073 22.6888 17.8127C22.3142 18.6286 22.0644 19.1727 21.5113 20.0164C21.0519 20.7158 20.5063 21.4808 19.9063 22.0564C19.3063 22.632 18.6706 22.9958 18.0313 23.0014C17.4144 23.007 17.0638 22.8233 16.5313 22.5814C15.9988 22.3395 15.3106 22.062 14.2513 22.0714C13.1938 22.077 12.4963 22.3433 11.9563 22.5814C11.4163 22.8195 11.0619 23.007 10.4413 23.0014C9.785 22.9958 9.17563 22.677 8.59625 22.1464C8.01688 21.6158 7.49375 20.892 7.03625 20.1964C4.51625 16.3564 4.31375 11.8452 5.76125 9.62141C6.8225 7.98829 9.58625 7.05641 10.0063 7.05641Z" fill="black"/>
<path d="M10.0063 7.05641C10.4263 7.05641 11.4013 7.25704 12.0613 7.49141C12.7213 7.72579 13.4169 8.00141 14.2363 8.00141C15.0369 8.00141 15.6706 7.72391 16.2913 7.49141C16.9119 7.25891 17.5306 7.05641 18.4513 7.05641C19.6531 7.05641 20.9525 7.68079 21.9763 8.76641C20.3375 9.92329 19.5706 11.727 19.7263 13.4764C19.8819 15.2445 20.9469 16.9227 22.6963 17.7964L22.6888 17.8127C22.3142 18.6286 22.0644 19.1727 21.5113 20.0164C21.0519 20.7158 20.5063 21.4808 19.9063 22.0564C19.3063 22.632 18.6706 22.9958 18.0313 23.0014C17.4144 23.007 17.0638 22.8233 16.5313 22.5814C15.9988 22.3395 15.3106 22.062 14.2513 22.0714C13.1938 22.077 12.4963 22.3433 11.9563 22.5814C11.4163 22.8195 11.0619 23.007 10.4413 23.0014C9.785 22.9958 9.17563 22.677 8.59625 22.1464C8.01688 21.6158 7.49375 20.892 7.03625 20.1964C4.51625 16.3564 4.31375 11.8452 5.76125 9.62141C6.8225 7.98829 9.58625 7.05641 10.0063 7.05641Z" fill="black"/>
<path d="M17.4763 2.06141C17.4444 3.03079 17.1125 3.97954 16.5613 4.68641C15.9838 5.42891 15.0125 5.94266 14.0713 6.09641C14.0881 5.16454 14.4556 4.19891 15.0163 3.51641C15.605 2.80391 16.58 2.29016 17.4763 2.06141Z" fill="black"/>
</g>
</g>
<defs>
<clipPath id="clip0_44_4613">
<rect width="24" height="24" fill="white" transform="translate(0.5 0.921387)"/>
</clipPath>
</defs>
</svg>
