<svg width="24" height="25" viewBox="0 0 24 25" fill="none" xmlns="http://www.w3.org/2000/svg">
<g id="icons8-google 1">
<path id="Vector" d="M21.8055 10.9629H21V10.9214H12V14.9214H17.6515C16.827 17.2499 14.6115 18.9214 12 18.9214C8.6865 18.9214 6 16.2349 6 12.9214C6 9.60789 8.6865 6.92139 12 6.92139C13.5295 6.92139 14.921 7.49839 15.9805 8.44089L18.809 5.61239C17.023 3.94789 14.634 2.92139 12 2.92139C6.4775 2.92139 2 7.39889 2 12.9214C2 18.4439 6.4775 22.9214 12 22.9214C17.5225 22.9214 22 18.4439 22 12.9214C22 12.2509 21.931 11.5964 21.8055 10.9629Z" fill="#FFC107"/>
<path id="Vector_2" d="M3.153 8.26689L6.4385 10.6764C7.3275 8.47539 9.4805 6.92139 12 6.92139C13.5295 6.92139 14.921 7.49839 15.9805 8.44089L18.809 5.61239C17.023 3.94789 14.634 2.92139 12 2.92139C8.159 2.92139 4.828 5.08989 3.153 8.26689Z" fill="#FF3D00"/>
<path id="Vector_3" d="M12 22.9214C14.583 22.9214 16.93 21.9329 18.7045 20.3254L15.6095 17.7064C14.6055 18.4669 13.3575 18.9214 12 18.9214C9.399 18.9214 7.1905 17.2629 6.3585 14.9484L3.0975 17.4609C4.7525 20.6994 8.1135 22.9214 12 22.9214Z" fill="#4CAF50"/>
<path id="Vector_4" d="M21.8055 10.9629H21V10.9214H12V14.9214H17.6515C17.2555 16.0399 16.536 17.0044 15.608 17.7069L15.6095 17.7059L18.7045 20.3249C18.4855 20.5239 22 17.9214 22 12.9214C22 12.2509 21.931 11.5964 21.8055 10.9629Z" fill="#1976D2"/>
</g>
</svg>
