<svg width="20" height="20" viewBox="0 0 20 20" fill="none" xmlns="http://www.w3.org/2000/svg">
<path id="Vector" d="M18.9159 19.0002L14.5843 14.6572M14.5843 14.6572C15.3252 13.9143 15.9129 13.0324 16.3139 12.0618C16.7149 11.0911 16.9213 10.0508 16.9213 9.00021C16.9213 7.9496 16.7149 6.90929 16.3139 5.93866C15.9129 4.96803 15.3252 4.08609 14.5843 3.34321C13.8433 2.60032 12.9637 2.01103 11.9956 1.60898C11.0275 1.20693 9.98994 1 8.9421 1C7.89425 1 6.85667 1.20693 5.88859 1.60898C4.92051 2.01103 4.04088 2.60032 3.29995 3.34321C1.80355 4.84354 0.962891 6.87842 0.962891 9.00021C0.962891 11.122 1.80355 13.1569 3.29995 14.6572C4.79634 16.1575 6.82588 17.0004 8.9421 17.0004C11.0583 17.0004 13.0879 16.1575 14.5843 14.6572Z" stroke="#5E5E5E" stroke-linecap="round" stroke-linejoin="round"/>
</svg>
