<svg width="71" height="71" viewBox="0 0 71 71" fill="none" xmlns="http://www.w3.org/2000/svg">
<g id="vuesax/outline/building">
<g id="building">
<path id="Vector" d="M36.6671 66.7379H11.9684C7.3631 66.7379 3.5791 63.0419 3.5791 58.4659V14.9353C3.5791 10.4473 5.2511 6.95659 8.30177 5.04992C11.3818 3.11392 15.3711 3.17259 19.5071 5.22592L32.5311 11.6206C36.0804 13.3806 38.8671 17.8099 38.8671 21.7406V64.5379C38.8671 65.7406 37.8698 66.7379 36.6671 66.7379ZM13.3764 8.07125C12.3498 8.07125 11.4111 8.30592 10.6191 8.80459C8.91777 9.86059 7.9791 12.0606 7.9791 14.9353V58.4659C7.9791 60.6073 9.76843 62.3379 11.9684 62.3379H34.4671V21.7406C34.4671 19.4819 32.6484 16.5779 30.5658 15.5806L17.5418 9.18592C16.0458 8.45259 14.6378 8.07125 13.3764 8.07125Z" fill="#171725"/>
<path id="Vector_2" d="M55.1761 66.7335H36.6668C35.4641 66.7335 34.4668 65.7361 34.4668 64.5335V30.5655C34.4668 29.8908 34.7601 29.2748 35.2881 28.8641C35.8161 28.4535 36.4615 28.2775 37.1361 28.4241L38.5148 28.7175L57.6988 33.0001C63.5361 34.2908 66.4695 37.7228 66.6455 43.5601C66.6748 43.5601 66.6748 43.8535 66.6748 44.1761V55.2641C66.6455 62.7735 62.6855 66.7335 55.1761 66.7335ZM38.8668 62.3335H55.1761C60.3388 62.3335 62.2455 60.4268 62.2455 55.2641V43.9415C62.0988 39.9228 60.5735 38.1335 56.7308 37.2828L38.8668 33.2935V62.3335Z" fill="#171725"/>
<path id="Vector_3" d="M26.3118 28.6012H16.1331C14.9304 28.6012 13.9331 27.6038 13.9331 26.4012C13.9331 25.1985 14.9304 24.2012 16.1331 24.2012H26.3118C27.5144 24.2012 28.5118 25.1985 28.5118 26.4012C28.5118 27.6038 27.5438 28.6012 26.3118 28.6012Z" fill="#171725"/>
<path id="Vector_4" d="M26.3118 40.3355H16.1331C14.9304 40.3355 13.9331 39.3382 13.9331 38.1355C13.9331 36.9329 14.9304 35.9355 16.1331 35.9355H26.3118C27.5144 35.9355 28.5118 36.9329 28.5118 38.1355C28.5118 39.3382 27.5438 40.3355 26.3118 40.3355Z" fill="#171725"/>
<path id="Vector_5" d="M44.6462 52.0704C39.8062 52.0704 35.8462 48.1104 35.8462 43.2704V30.8624C35.8462 30.1877 36.1395 29.5717 36.6675 29.1317C37.1955 28.6917 37.8702 28.5451 38.5155 28.6917L51.7155 31.6544C52.7129 31.8891 53.4462 32.7691 53.4462 33.7957V43.2411C53.4462 48.1104 49.5155 52.0704 44.6462 52.0704ZM40.2462 33.6197V43.2704C40.2462 45.7051 42.2115 47.6704 44.6462 47.6704C47.0809 47.6704 49.0462 45.7051 49.0462 43.2704V35.5851L40.2462 33.6197Z" fill="#171725"/>
<path id="Vector_6" d="M57.8459 52.0706C53.0059 52.0706 49.0459 48.1106 49.0459 43.2706V33.8252C49.0459 33.1506 49.3392 32.5346 49.8672 32.1239C50.3952 31.7132 51.0699 31.5372 51.7152 31.6839L57.6699 33.0039C63.5072 34.2946 66.4406 37.7266 66.6166 43.5639C66.6166 43.6226 66.6166 43.6812 66.6166 43.7399C66.3819 48.4039 62.5392 52.0706 57.8459 52.0706ZM53.4459 36.5532V43.2706C53.4459 45.7052 55.4112 47.6706 57.8459 47.6706C60.1632 47.6706 62.0699 45.8812 62.2166 43.5932C62.0699 39.8972 60.5446 38.1372 56.7312 37.2866L53.4459 36.5532Z" fill="#171725"/>
</g>
</g>
</svg>
