<svg width="15" height="14" viewBox="0 0 15 14" fill="none" xmlns="http://www.w3.org/2000/svg">
<path id="Vector" d="M4.15134 2.72941L3.44519 5.03859H11.3942L10.688 2.72941C10.5663 2.3332 10.2389 2.067 9.87093 2.067H4.96843C4.60047 2.067 4.27309 2.3332 4.15134 2.72941ZM1.56482 5.18717L2.51718 2.07628C2.88243 0.884552 3.86455 0.0859375 4.96843 0.0859375H9.87093C10.9748 0.0859375 11.9569 0.884552 12.3222 2.07628L13.2745 5.18717C13.9022 5.48432 14.3459 6.19317 14.3459 7.01965V11.477V12.9628C14.3459 13.5107 13.959 13.9534 13.4802 13.9534H12.6144C12.1355 13.9534 11.7486 13.5107 11.7486 12.9628V11.477H3.09076V12.9628C3.09076 13.5107 2.70386 13.9534 2.22498 13.9534H1.35919C0.880305 13.9534 0.493408 13.5107 0.493408 12.9628V11.477V7.01965C0.493408 6.19317 0.937122 5.48432 1.56482 5.18717ZM3.95654 8.01018C3.95654 7.74747 3.86533 7.49553 3.70296 7.30977C3.54059 7.124 3.32038 7.01965 3.09076 7.01965C2.86114 7.01965 2.64092 7.124 2.47856 7.30977C2.31619 7.49553 2.22498 7.74747 2.22498 8.01018C2.22498 8.27288 2.31619 8.52483 2.47856 8.71059C2.64092 8.89635 2.86114 9.0007 3.09076 9.0007C3.32038 9.0007 3.54059 8.89635 3.70296 8.71059C3.86533 8.52483 3.95654 8.27288 3.95654 8.01018ZM11.7486 9.0007C11.9782 9.0007 12.1984 8.89635 12.3608 8.71059C12.5232 8.52483 12.6144 8.27288 12.6144 8.01018C12.6144 7.74747 12.5232 7.49553 12.3608 7.30977C12.1984 7.124 11.9782 7.01965 11.7486 7.01965C11.519 7.01965 11.2988 7.124 11.1364 7.30977C10.974 7.49553 10.8828 7.74747 10.8828 8.01018C10.8828 8.27288 10.974 8.52483 11.1364 8.71059C11.2988 8.89635 11.519 9.0007 11.7486 9.0007Z" fill="black" fill-opacity="0.85"/>
</svg>
