<svg width="15" height="14" viewBox="0 0 15 14" fill="none" xmlns="http://www.w3.org/2000/svg">
<path id="Vector" d="M7.42257 0.0898438C3.59722 0.0898438 0.499512 3.19448 0.499512 7.01983C0.499512 10.8452 3.59722 13.9498 7.42257 13.9498C11.2548 13.9498 14.3595 10.8452 14.3595 7.01983C14.3595 3.19448 11.2548 0.0898438 7.42257 0.0898438ZM7.4295 12.5638C4.36644 12.5638 1.88551 10.0829 1.88551 7.01983C1.88551 3.95678 4.36644 1.47584 7.4295 1.47584C10.4926 1.47584 12.9735 3.95678 12.9735 7.01983C12.9735 10.0829 10.4926 12.5638 7.4295 12.5638ZM7.776 3.55484H6.7365V7.71283L10.3747 9.89577L10.8945 9.04339L7.776 7.19308V3.55484Z" fill="#323232"/>
</svg>
