<svg width="39" height="38" viewBox="0 0 39 38" fill="none" xmlns="http://www.w3.org/2000/svg">
<g id="icons-phone">
<rect x="0.910156" y="0.270508" width="37.6066" height="37.6066" rx="18.8033" fill="#DB4444"/>
<path id="Vector" d="M18.3549 13.6581L15.1743 9.9868C14.8076 9.56373 14.1354 9.56561 13.7095 9.99244L11.094 12.6127C10.3155 13.3921 10.0927 14.5494 10.5431 15.4774C13.2334 21.0478 17.726 25.5466 23.2926 28.2448C24.2196 28.6951 25.376 28.4723 26.1545 27.6929L28.7945 25.0482C29.2222 24.6205 29.2232 23.9445 28.7963 23.5778L25.1109 20.4142C24.7254 20.0832 24.1266 20.1265 23.7401 20.5138L22.4578 21.7981C22.3921 21.8669 22.3057 21.9122 22.2118 21.9272C22.1178 21.9421 22.0216 21.9258 21.9378 21.8808C19.8417 20.6737 18.1029 18.9327 16.8986 16.835C16.8535 16.751 16.8371 16.6547 16.8521 16.5606C16.867 16.4665 16.9124 16.3799 16.9813 16.3141L18.2599 15.0345C18.6473 14.6453 18.6896 14.0436 18.3549 13.6572V13.6581Z" stroke="white" stroke-width="1.41025" stroke-linecap="round" stroke-linejoin="round"/>
</g>
</svg>
