<svg width="115" height="115" viewBox="0 0 115 115" fill="none" xmlns="http://www.w3.org/2000/svg">
<g id="help (1) 1">
<g id="Group">
<g id="LWPOLYLINE">
<g id="Group_2">
<path id="Vector" d="M56.3427 70.0002C56.3319 70.0002 56.3212 70.0002 56.3105 70.0002C54.3348 69.9823 52.7456 68.3663 52.7635 66.3888L52.7796 64.5992C52.7796 64.4972 52.785 64.3934 52.7957 64.2914C53.2915 59.0856 56.7471 55.8948 59.5263 53.3303C60.4677 52.4606 61.3589 51.6392 62.1176 50.782C63.0429 49.7386 64.385 47.6019 62.9731 45.0231C61.3463 42.0453 57.3735 41.2024 54.2865 41.9093C51.0617 42.6466 49.8734 45.4007 49.451 46.9755C48.9392 48.885 46.976 50.0178 45.0666 49.5078C43.1571 48.996 42.0243 47.0328 42.5343 45.1233C43.9606 39.7958 47.6615 36.0824 52.6866 34.9317C59.4494 33.3873 66.2605 36.12 69.2509 41.5871C71.7402 46.1398 71.0584 51.4817 67.4703 55.5297C66.4735 56.6535 65.4087 57.6378 64.3779 58.5881C61.8098 60.9593 60.2046 62.5448 59.9326 64.8337L59.9183 66.4497C59.9039 68.42 58.3041 70.0002 56.3427 70.0002Z" fill="#FFB43F"/>
</g>
</g>
<g id="POINT">
<g id="Group_3">
<path id="Vector_2" d="M56.3428 80.7304C55.4122 80.7304 54.4817 80.3546 53.8195 79.6925C53.1395 79.0303 52.7637 78.0997 52.7637 77.1513C52.7637 76.2207 53.1395 75.2901 53.8195 74.628C55.1438 73.3037 57.5418 73.3037 58.8661 74.628C59.5462 75.2901 59.922 76.2207 59.922 77.1513C59.922 78.0997 59.5462 79.0124 58.884 79.6925C58.204 80.3546 57.2913 80.7304 56.3428 80.7304Z" fill="#FFB43F"/>
</g>
</g>
<g id="CIRCLE_2_">
<g id="Group_4">
<path id="Vector_3" d="M57.4206 104.169C53.3493 104.169 49.3138 103.639 45.425 102.592C28.6675 98.0841 15.5463 84.2024 11.9976 67.2247C8.38089 49.9285 15.056 31.7464 29.0057 20.9034C37.0695 14.6345 47.2397 11.1807 57.6443 11.1807C64.8473 11.1807 72.0002 12.8557 78.3317 16.0215C93.9672 23.8437 104.069 40.1861 104.069 57.6577C104.069 71.9134 97.3424 85.6537 86.0752 94.4119C77.9827 100.704 67.8055 104.169 57.4206 104.169ZM57.646 18.339C48.8252 18.339 40.2138 21.256 33.4009 26.5549C21.5951 35.7318 15.9436 51.1204 19.0056 65.7591C22.0085 80.1204 33.1092 91.8653 47.2862 95.6789C50.5683 96.5612 53.9792 97.0104 57.4206 97.0104H57.4223C66.2235 97.0104 74.8385 94.0808 81.6836 88.7604C91.2202 81.348 96.9129 69.7212 96.9129 57.6577C96.9129 42.874 88.3641 29.0442 75.132 22.4246C69.7883 19.7527 63.7431 18.339 57.646 18.339Z" fill="#FFB43F"/>
</g>
</g>
</g>
</g>
</svg>
