<svg width="48" height="42" viewBox="0 0 48 42" fill="none" xmlns="http://www.w3.org/2000/svg">
<path id="Vector" d="M5.50868 23.9917L5.5102 23.9931L22.0742 39.8157C22.4914 40.2141 23.0371 40.432 23.6005 40.432C24.1638 40.432 24.7095 40.2141 25.1267 39.8157L41.6907 23.9931L41.6922 23.9917C44.183 21.6192 45.6005 18.2818 45.6005 14.7835V14.2395C45.6005 8.37418 41.4632 3.41505 35.8756 2.46064L5.50868 23.9917ZM5.50868 23.9917C3.01791 21.6192 1.60046 18.2818 1.60046 14.7835V14.2395C1.60046 8.37418 5.73776 3.41505 11.3253 2.46064L5.50868 23.9917ZM23.6005 7.981L22.5516 6.90778L21.4516 5.78227C18.7954 3.06458 15.0246 1.82991 11.3257 2.46058L23.6005 7.981ZM23.6005 7.981L24.6494 6.90778M23.6005 7.981L24.6494 6.90778M24.6494 6.90778L25.7494 5.78227C28.4055 3.06458 32.1763 1.82991 35.8752 2.46058L24.6494 6.90778Z" stroke="#B02700" stroke-width="2.93333"/>
</svg>
