<svg width="19" height="19" viewBox="0 0 19 19" fill="none" xmlns="http://www.w3.org/2000/svg">
<g id="solar:star-bold">
<path id="Vector" d="M7.6505 4.78038C8.58432 3.10583 9.05087 2.26855 9.74884 2.26855C10.4468 2.26855 10.9134 3.10583 11.8472 4.78038L12.0889 5.21375C12.3543 5.68988 12.4869 5.92794 12.6933 6.08493C12.8997 6.24192 13.1576 6.30015 13.6736 6.4166L14.1423 6.52273C15.9554 6.93326 16.8612 7.13816 17.0772 7.83171C17.2924 8.52453 16.6748 9.24756 15.4388 10.6929L15.1189 11.0666C14.7681 11.4771 14.5919 11.6827 14.513 11.9363C14.4342 12.1905 14.4607 12.4647 14.5138 13.0123L14.5624 13.5113C14.7489 15.4401 14.8425 16.4042 14.2779 16.8324C13.7134 17.2614 12.8643 16.87 11.1676 16.0887L10.7276 15.8868C10.2456 15.6642 10.0046 15.5536 9.74884 15.5536C9.49309 15.5536 9.25208 15.6642 8.76932 15.8868L8.33078 16.0887C6.63338 16.87 5.78432 17.2606 5.22048 16.8331C4.65518 16.4042 4.74878 15.4401 4.93525 13.5113L4.9839 13.0131C5.03696 12.4647 5.0635 12.1905 4.9839 11.937C4.90577 11.6827 4.72962 11.4771 4.37879 11.0673L4.05891 10.6929C2.8229 9.2483 2.20527 8.52526 2.42048 7.83171C2.63643 7.13816 3.54299 6.93252 5.3561 6.52273L5.82485 6.4166C6.34004 6.30015 6.59727 6.24192 6.80438 6.08493C7.01075 5.92794 7.14341 5.68988 7.40875 5.21375L7.6505 4.78038Z" fill="#F4C700"/>
</g>
</svg>
