<svg width="28" height="28" viewBox="0 0 28 28" fill="none" xmlns="http://www.w3.org/2000/svg">
<g id="ig">
<g id="Group">
<path id="Vector" d="M14.1803 18.4567C15.3531 18.4567 16.4779 17.9908 17.3073 17.1615C18.1366 16.3322 18.6025 15.2074 18.6025 14.0345C18.6025 12.8617 18.1366 11.7369 17.3073 10.9075C16.4779 10.0782 15.3531 9.6123 14.1803 9.6123C13.0074 9.6123 11.8826 10.0782 11.0533 10.9075C10.224 11.7369 9.75806 12.8617 9.75806 14.0345C9.75806 15.2074 10.224 16.3322 11.0533 17.1615C11.8826 17.9908 13.0074 18.4567 14.1803 18.4567V18.4567Z" stroke="black" stroke-width="1.99" stroke-linecap="round" stroke-linejoin="round"/>
<path id="Vector_2" d="M4.22949 18.4572V9.61274C4.22949 8.14668 4.81188 6.74067 5.84854 5.70401C6.8852 4.66735 8.29121 4.08496 9.75727 4.08496H18.6017C20.0678 4.08496 21.4738 4.66735 22.5104 5.70401C23.5471 6.74067 24.1295 8.14668 24.1295 9.61274V18.4572C24.1295 19.9232 23.5471 21.3293 22.5104 22.3659C21.4738 23.4026 20.0678 23.985 18.6017 23.985H9.75727C8.29121 23.985 6.8852 23.4026 5.84854 22.3659C4.81188 21.3293 4.22949 19.9232 4.22949 18.4572Z" stroke="black" stroke-width="1.99"/>
<path id="Vector_3" d="M20.2598 7.96782L20.2722 7.9541" stroke="black" stroke-width="1.99" stroke-linecap="round" stroke-linejoin="round"/>
</g>
</g>
</svg>
