<svg width="28" height="28" viewBox="0 0 28 28" fill="none" xmlns="http://www.w3.org/2000/svg">
<g id="tw">
<path id="Vector" d="M26.3409 4.02967C26.3409 4.02967 24.1099 5.34749 22.8695 5.72117C22.2036 4.95559 21.3187 4.41296 20.3345 4.16668C19.3502 3.9204 18.314 3.98235 17.3661 4.34415C16.4182 4.70595 15.6042 5.35015 15.0344 6.18961C14.4645 7.02908 14.1662 8.02331 14.1798 9.03784V10.1434C12.2369 10.1938 10.3118 9.76288 8.57574 8.88908C6.83972 8.01529 5.34675 6.72572 4.22979 5.13523C4.22979 5.13523 -0.192435 15.0852 9.75757 19.5075C7.48071 21.053 4.76837 21.8279 2.01868 21.7186C11.9687 27.2463 24.1298 21.7186 24.1298 9.00467C24.1298 8.69733 24.0988 8.38998 24.0413 8.08706C25.169 6.97487 26.3409 4.02967 26.3409 4.02967Z" stroke="black" stroke-width="1.99" stroke-linecap="round" stroke-linejoin="round"/>
</g>
</svg>
