<svg width="18" height="19" viewBox="0 0 18 19" fill="none" xmlns="http://www.w3.org/2000/svg">
<g id="settings/2">
<path id="Icon" d="M3 6.5H12M12 6.5C12 7.74264 13.0074 8.75 14.25 8.75C15.4926 8.75 16.5 7.74264 16.5 6.5C16.5 5.25736 15.4926 4.25 14.25 4.25C13.0074 4.25 12 5.25736 12 6.5ZM6.75 12.5H15M6.75 12.5C6.75 13.7426 5.74264 14.75 4.5 14.75C3.25736 14.75 2.25 13.7426 2.25 12.5C2.25 11.2574 3.25736 10.25 4.5 10.25C5.74264 10.25 6.75 11.2574 6.75 12.5Z" stroke="#5E5E5E" stroke-width="2" stroke-linecap="round"/>
</g>
</svg>
