<svg width="71" height="71" viewBox="0 0 71 71" fill="none" xmlns="http://www.w3.org/2000/svg">
<g id="vuesax/outline/wind">
<g id="wind">
<path id="Vector" d="M54.2665 66.7361C47.4025 66.7361 41.7998 61.1334 41.7998 54.2694V52.8027C41.7998 51.6001 42.7972 50.6027 43.9998 50.6027C45.2025 50.6027 46.1998 51.6001 46.1998 52.8027V54.2694C46.1998 58.7281 49.8078 62.3361 54.2665 62.3361C58.7252 62.3361 62.3332 58.7281 62.3332 54.2694C62.3332 49.8107 58.7252 46.2027 54.2665 46.2027H5.8665C4.66384 46.2027 3.6665 45.2054 3.6665 44.0027C3.6665 42.8001 4.66384 41.8027 5.8665 41.8027H54.2665C61.1305 41.8027 66.7332 47.4054 66.7332 54.2694C66.7332 61.1334 61.1305 66.7361 54.2665 66.7361Z" fill="#171725"/>
<path id="Vector_2" d="M54.2665 37.4021H5.8665C4.66384 37.4021 3.6665 36.4048 3.6665 35.2021C3.6665 33.9994 4.66384 33.0021 5.8665 33.0021H54.2665C58.7252 33.0021 62.3332 29.3941 62.3332 24.9354C62.3332 20.4768 58.7252 16.8688 54.2665 16.8688C49.8078 16.8688 46.1998 20.4768 46.1998 24.9354V26.4021C46.1998 27.6048 45.2025 28.6021 43.9998 28.6021C42.7972 28.6021 41.7998 27.6048 41.7998 26.4021V24.9354C41.7998 18.0714 47.4025 12.4688 54.2665 12.4688C61.1305 12.4688 66.7332 18.0714 66.7332 24.9354C66.7332 31.7994 61.1305 37.4021 54.2665 37.4021Z" fill="#171725"/>
<path id="Vector_3" d="M27.3092 28.5993H5.8665C4.66384 28.5993 3.6665 27.602 3.6665 26.3993C3.6665 25.1966 4.66384 24.1993 5.8665 24.1993H27.3092C30.4478 24.1993 32.9998 21.6473 32.9998 18.5086C32.9998 15.37 30.4478 12.818 27.3092 12.818C24.1705 12.818 21.6185 15.37 21.6185 18.5086V19.6233C21.6185 20.826 20.6212 21.8233 19.4185 21.8233C18.2158 21.8233 17.2185 20.826 17.2185 19.6233V18.5086C17.2185 12.9353 21.7358 8.41797 27.3092 8.41797C32.8825 8.41797 37.3998 12.9353 37.3998 18.5086C37.3998 24.082 32.8825 28.5993 27.3092 28.5993Z" fill="#171725"/>
</g>
</g>
</svg>
