<svg width="71" height="71" viewBox="0 0 71 71" fill="none" xmlns="http://www.w3.org/2000/svg">
<g id="vuesax/outline/24-support">
<g id="24-support">
<path id="Vector" d="M35.2001 66.7346C33.1468 66.7346 31.0641 65.9424 29.5094 64.3878L24.4935 59.4306C23.2321 58.1986 21.5894 57.5239 19.8294 57.5239H17.6001C11.5281 57.5239 6.6001 52.6253 6.6001 46.6119V14.6092C6.6001 8.59585 11.5281 3.69727 17.6001 3.69727H52.8001C58.8721 3.69727 63.8001 8.59585 63.8001 14.6092V46.6119C63.8001 52.6253 58.8721 57.5239 52.8001 57.5239H50.5708C48.8108 57.5239 47.1387 58.1986 45.9067 59.4306L40.8908 64.3878C39.3361 65.9424 37.2534 66.7346 35.2001 66.7346ZM17.6001 8.0679C13.9628 8.0679 11.0001 11.0012 11.0001 14.5798V46.5826C11.0001 50.1906 13.9628 53.0945 17.6001 53.0945H19.8294C22.7627 53.0945 25.5201 54.2384 27.6028 56.2917L32.6187 61.2493C34.0561 62.6573 36.3734 62.6573 37.8108 61.2493L42.8268 56.2917C44.9095 54.2384 47.6668 53.0945 50.6001 53.0945H52.8001C56.4374 53.0945 59.4001 50.1613 59.4001 46.5826V14.5798C59.4001 10.9718 56.4374 8.0679 52.8001 8.0679H17.6001Z" fill="#171725"/>
<path id="Vector_2" d="M30.4487 42.5618H22.5873C21.2967 42.5618 20.094 41.9456 19.3313 40.8896C18.598 39.8923 18.422 38.6605 18.774 37.4872C19.8007 34.3485 22.3233 32.647 24.5527 31.1217C26.8993 29.5377 28.2193 28.5405 28.2193 26.8392C28.2193 25.3138 26.9873 24.0816 25.462 24.0816C23.9367 24.0816 22.7047 25.3138 22.7047 26.8392C22.7047 28.0418 21.7074 29.0392 20.5047 29.0392C19.302 29.0392 18.3047 28.0418 18.3047 26.8392C18.3047 22.9085 21.502 19.6816 25.462 19.6816C29.422 19.6816 32.6193 22.8792 32.6193 26.8392C32.6193 30.9752 29.51 33.087 27.0167 34.7884C25.462 35.8444 23.9953 36.8418 23.262 38.1618H30.4193C31.622 38.1618 32.6193 39.1591 32.6193 40.3618C32.6193 41.5645 31.6514 42.5618 30.4487 42.5618Z" fill="#171725"/>
<path id="Vector_3" d="M47.0501 42.5681C45.8474 42.5681 44.8501 41.5708 44.8501 40.3681V38.3439H39.1008C39.1008 38.3439 39.1008 38.3439 39.0714 38.3439C37.6341 38.3439 36.3141 37.5815 35.5808 36.3495C34.8474 35.0881 34.8474 33.5334 35.5808 32.3014C37.5754 28.8694 39.8928 24.968 42.0048 21.5653C42.9434 20.0693 44.7328 19.3948 46.4048 19.8641C48.0768 20.3628 49.2501 21.8883 49.2207 23.6483V33.9733H49.8661C51.0687 33.9733 52.0661 34.9706 52.0661 36.1733C52.0661 37.3759 51.0687 38.3733 49.8661 38.3733H49.2501V40.3975C49.2501 41.6001 48.2821 42.5681 47.0501 42.5681ZM44.8501 25.3495C43.1194 28.1655 41.3301 31.1866 39.7167 33.9439H44.8501V25.3495Z" fill="#171725"/>
</g>
</g>
</svg>
