<svg width="71" height="71" viewBox="0 0 71 71" fill="none" xmlns="http://www.w3.org/2000/svg">
<g id="vuesax/outline/wind-2">
<g id="wind-2">
<path id="Vector" d="M64.5331 40.6322C64.1518 40.6322 63.7704 40.5442 63.4184 40.3095L56.0851 35.9095C52.2718 33.6215 47.5198 33.6215 43.6772 35.9095C38.4558 39.0482 31.9731 39.0482 26.7518 35.9095C22.9384 33.6215 18.1865 33.6215 14.3438 35.9095L7.0105 40.3095C5.9545 40.9255 4.60508 40.6028 3.98908 39.5468C3.37308 38.4908 3.69577 37.1415 4.75177 36.5255L12.0851 32.1255C17.3064 28.9868 23.7892 28.9868 29.0105 32.1255C32.8238 34.4135 37.5758 34.4135 41.4184 32.1255C46.6398 28.9868 53.1225 28.9868 58.3438 32.1255L65.6772 36.5255C66.7332 37.1415 67.0558 38.4908 66.4398 39.5468C65.9998 40.2508 65.2665 40.6322 64.5331 40.6322Z" fill="#171725"/>
<path id="Vector_2" d="M20.5336 20.0954C17.6003 20.0954 14.6669 19.3034 12.0562 17.7488L4.7229 13.3488C3.6669 12.7328 3.34429 11.3834 3.96029 10.3274C4.57629 9.30077 5.92562 8.94877 6.98162 9.56477L14.315 13.9648C18.1283 16.2528 22.8802 16.2528 26.7229 13.9648C31.9442 10.8261 38.427 10.8261 43.6483 13.9648C47.4616 16.2528 52.2136 16.2528 56.0562 13.9648L63.3896 9.56477C64.4456 8.94877 65.795 9.27144 66.411 10.3274C67.027 11.3541 66.7043 12.7328 65.6483 13.3488L58.315 17.7488C53.0936 20.8874 46.6109 20.8874 41.3896 17.7488C37.5762 15.4608 32.8243 15.4608 28.9816 17.7488C26.4003 19.3034 23.4669 20.0954 20.5336 20.0954Z" fill="#171725"/>
<path id="Vector_3" d="M64.5331 61.1654C64.1518 61.1654 63.7704 61.0774 63.4184 60.8427L56.0851 56.4427C52.2718 54.1547 47.5198 54.1547 43.6772 56.4427C38.4558 59.5814 31.9731 59.5814 26.7518 56.4427C22.9384 54.1547 18.1865 54.1547 14.3438 56.4427L7.0105 60.8427C5.9545 61.4587 4.60508 61.136 3.98908 60.08C3.37308 59.024 3.69577 57.6747 4.75177 57.0587L12.0851 52.6587C17.3064 49.52 23.7892 49.52 29.0105 52.6587C32.8238 54.9467 37.5758 54.9467 41.4184 52.6587C46.6398 49.52 53.1225 49.52 58.3438 52.6587L65.6772 57.0587C66.7332 57.6747 67.0558 59.024 66.4398 60.08C65.9998 60.784 65.2665 61.1654 64.5331 61.1654Z" fill="#171725"/>
</g>
</g>
</svg>
