<svg width="18" height="18" viewBox="0 0 18 18" fill="none" xmlns="http://www.w3.org/2000/svg">
<g id="Frame">
<path id="Vector" fill-rule="evenodd" clip-rule="evenodd" d="M12.297 10.7062C12.9949 9.61606 13.2655 8.30649 13.0568 7.02899C12.8481 5.75149 12.1748 4.59613 11.1662 3.78478C10.1576 2.97343 8.88478 2.5633 7.59223 2.63314C6.29967 2.70298 5.07849 3.24788 4.16318 4.16318C3.24788 5.07849 2.70298 6.29967 2.63314 7.59223C2.5633 8.88478 2.97343 10.1576 3.78478 11.1662C4.59613 12.1748 5.75149 12.8481 7.02899 13.0568C8.30649 13.2655 9.61606 12.9949 10.7062 12.297L13.4542 15.0457C13.6653 15.2568 13.9515 15.3753 14.25 15.3753C14.5484 15.3753 14.8347 15.2568 15.0457 15.0457C15.2568 14.8347 15.3753 14.5484 15.3753 14.25C15.3753 13.9515 15.2568 13.6653 15.0457 13.4542L12.297 10.7062ZM7.87497 10.875C7.07932 10.875 6.31626 10.5589 5.75365 9.99629C5.19104 9.43368 4.87497 8.67062 4.87497 7.87497C4.87497 7.07932 5.19104 6.31626 5.75365 5.75365C6.31626 5.19104 7.07932 4.87497 7.87497 4.87497C8.67062 4.87497 9.43368 5.19104 9.99629 5.75365C10.5589 6.31626 10.875 7.07932 10.875 7.87497C10.875 8.67062 10.5589 9.43368 9.99629 9.99629C9.43368 10.5589 8.67062 10.875 7.87497 10.875Z" fill="#343538"/>
</g>
</svg>
